<?xml version="1.0" encoding="UTF-8"?>
<svg id="Layer_1" xmlns="http://www.w3.org/2000/svg" version="1.1" viewBox="0 0 16 16">
  <!-- Generator: Adobe Illustrator 29.4.0, SVG Export Plug-In . SVG Version: 2.1.0 Build 152)  -->
  <defs>
    <style>
      .st0 {
        fill: #617d8a;
      }
    </style>
  </defs>
  <path class="st0" d="M8.48,13.86h-1.84c-1.97,0-3.58-1.6-3.58-3.58v-4.68c0-.5.27-.97.72-1.21.33-.18.7-.22,1.05-.12v-.08c0-.72.54-1.32,1.26-1.38.24-.02.48.02.7.12.24-.45.7-.74,1.22-.74s1,.3,1.24.74c.41-.18.87-.16,1.27.08.42.25.68.71.68,1.19v1.09c1,.23,1.74,1.12,1.74,2.19v1.92c0,2.46-2,4.46-4.46,4.46ZM4.45,5.21c-.06,0-.12.01-.18.05-.12.07-.2.2-.2.34v4.68c0,1.42,1.16,2.58,2.58,2.58h1.84c1.91,0,3.46-1.55,3.46-3.46v-1.92c0-.51-.31-.94-.74-1.14v2.12c0,.28-.22.5-.5.5s-.5-.22-.5-.5v-4.26c0-.14-.07-.26-.19-.33-.17-.1-.33-.04-.39,0-.06.03-.2.13-.2.34v1.09c0,.28-.22.5-.5.5s-.5-.22-.5-.5v-1.69c0-.22-.18-.41-.41-.41s-.41.18-.41.41v1.7c0,.28-.22.5-.5.5s-.5-.22-.5-.5v-1.11c0-.11-.04-.21-.13-.29s-.18-.11-.3-.1c-.2.02-.35.18-.35.38v1.54c0,.28-.22.5-.5.5s-.5-.22-.5-.5v-.13c0-.2-.13-.3-.19-.33-.04-.02-.11-.05-.2-.05Z"/>
</svg>